<?xml version="1.0" standalone="no"?><!DOCTYPE svg PUBLIC "-//W3C//DTD SVG 1.1//EN" "http://www.w3.org/Graphics/SVG/1.1/DTD/svg11.dtd"><svg t="1627099560976" class="icon" viewBox="0 0 1024 1024" version="1.1" xmlns="http://www.w3.org/2000/svg" p-id="4005" xmlns:xlink="http://www.w3.org/1999/xlink" width="200" height="200"><path d="M822.5792 866.2016H210.8416c-67.4304 0-122.112-54.6816-122.112-122.112V295.1168c0-67.4304 54.6816-122.112 122.112-122.112h611.7376c67.4304 0 122.112 54.6816 122.112 122.112v448.9728c0 67.4304-54.6816 122.112-122.112 122.112z" fill="#FFD05C" p-id="4006"></path><path d="M535.7568 608.6144l388.1472-383.4368c-21.5552-31.488-57.7536-52.1728-98.7648-52.1728H208.2816c-40.448 0-76.2368 20.1216-97.8432 50.8928l379.7504 384.4608c12.4928 12.6464 32.9216 12.8 45.568 0.256z" fill="#FCA235" p-id="4007"></path><path d="M912.7424 827.9552L532.48 392.6016c-10.3424-11.8784-28.8256-11.776-39.0656 0.1536l-373.4016 434.5344c21.8624 23.9104 53.3504 38.9632 88.32 38.9632h616.8064a119.4496 119.4496 0 0 0 87.6032-38.2976z" fill="#FCA235" p-id="4008"></path><path d="M532.48 392.6016c-10.3424-11.8784-28.8256-11.776-39.0656 0.1536L392.8064 509.7984l97.3312 98.56c12.4928 12.6976 32.9216 12.8 45.6192 0.256l99.5328-98.304L532.48 392.6016z" fill="#FF7C0E" p-id="4009"></path></svg>