<?xml version="1.0" standalone="no"?><!DOCTYPE svg PUBLIC "-//W3C//DTD SVG 1.1//EN" "http://www.w3.org/Graphics/SVG/1.1/DTD/svg11.dtd"><svg t="1625939941052" class="icon" viewBox="0 0 1024 1024" version="1.1" xmlns="http://www.w3.org/2000/svg" p-id="1503" xmlns:xlink="http://www.w3.org/1999/xlink" width="200" height="200"><defs><style type="text/css"></style></defs><path d="M673.951773 580.992908a229.492199 229.492199 0 1 1 67.298345-162.193854A227.555556 227.555556 0 0 1 673.951773 580.992908z m244.985343-343.754137a397.980142 397.980142 0 0 0-96.832151-123.460993A463.341844 463.341844 0 0 0 680.730024 30.502128 479.80331 479.80331 0 0 0 512.24208 0a479.80331 479.80331 0 0 0-168.487943 30.502128 463.341844 463.341844 0 0 0-141.374941 82.791489 397.495981 397.495981 0 0 0-96.832151 123.460993A338.91253 338.91253 0 0 0 68.750827 387.328605a521.925296 521.925296 0 0 0 53.257684 223.198109 846.313002 846.313002 0 0 0 122.976832 186.401891 1346.935225 1346.935225 0 0 0 242.080378 217.38818 45.02695 45.02695 0 0 0 25.66052 8.230733 45.511111 45.511111 0 0 0 25.176359-5.809929 1342.093617 1342.093617 0 0 0 242.080379-217.38818 849.702128 849.702128 0 0 0 122.976832-186.401891A522.409456 522.409456 0 0 0 955.249173 387.328605a338.91253 338.91253 0 0 0-36.312057-150.089834z m-407.179196 33.407092a148.153191 148.153191 0 1 0 148.153191 148.153191 148.153191 148.153191 0 0 0-147.669031-148.153191z" fill="#5E5C5C" p-id="1504"></path></svg>