<?xml version="1.0" standalone="no"?><!DOCTYPE svg PUBLIC "-//W3C//DTD SVG 1.1//EN" "http://www.w3.org/Graphics/SVG/1.1/DTD/svg11.dtd"><svg t="1625934567201" class="icon" viewBox="0 0 1024 1024" version="1.1" xmlns="http://www.w3.org/2000/svg" p-id="3799" xmlns:xlink="http://www.w3.org/1999/xlink" width="200" height="200"><defs><style type="text/css"></style></defs><path d="M470.7328 274.8928m-218.5728 0a218.5728 218.5728 0 1 0 437.1456 0 218.5728 218.5728 0 1 0-437.1456 0Z" fill="#80B7F9" p-id="3800"></path><path d="M552.8064 511.8976H388.608c-176.5888 0-319.744 143.1552-319.744 319.744 0 63.0784 51.1488 114.176 114.176 114.176h575.2832c63.0784 0 114.176-51.1488 114.176-114.176 0.0512-176.5888-143.104-319.744-319.6928-319.744z" fill="#80B7F9" p-id="3801"></path><path d="M745.5232 776.2944m-202.2912 0a202.2912 202.2912 0 1 0 404.5824 0 202.2912 202.2912 0 1 0-404.5824 0Z" fill="#95C9FC" p-id="3802"></path><path d="M742.2464 574.1056c-110.1824 1.7408-199.0144 91.5456-199.0144 202.1888 0 71.0144 36.608 133.4272 92.0064 169.5232h123.136c63.0784 0 114.176-51.1488 114.176-114.176 0-105.6768-51.3024-199.3216-130.304-257.536z" fill="#3E8BF8" p-id="3803"></path><path d="M740.3008 871.68c-10.3424 0-20.3264-3.8912-27.9552-11.008l-54.9888-51.2512c-16.5376-15.4112-17.4592-41.3696-2.048-57.9072 15.4112-16.5376 41.3184-17.4592 57.9072-2.048l23.2448 21.6576 50.3808-60.7232c14.4384-17.408 40.2944-19.8144 57.6512-5.376a40.9344 40.9344 0 0 1 5.376 57.6512l-78.08 94.1568a40.92928 40.92928 0 0 1-28.928 14.7456c-0.8192 0.0512-1.6896 0.1024-2.56 0.1024z" fill="#FFFFFF" p-id="3804"></path></svg>