<?xml version="1.0" standalone="no"?><!DOCTYPE svg PUBLIC "-//W3C//DTD SVG 1.1//EN" "http://www.w3.org/Graphics/SVG/1.1/DTD/svg11.dtd"><svg t="1627099621273" class="icon" viewBox="0 0 1024 1024" version="1.1" xmlns="http://www.w3.org/2000/svg" p-id="6164" xmlns:xlink="http://www.w3.org/1999/xlink" width="200" height="200"><path d="M837.5296 645.2224c3.6864 3.072 7.3728 6.2464 10.9568 9.3184 23.9616 20.7872 33.5872 32.256 34.6112 33.4848 0 0 2.048 2.56 4.1984 5.12 1.024 1.2288 1.9456 2.4576 2.9696 3.6864 0.512 0.6144 0.9216 1.2288 1.2288 1.536 0.6144 0.8192 1.1264 1.6384 1.6384 2.56l5.12 7.7824v0.7168c10.0352 21.0944 3.072 48.8448-3.2768 62.8736-11.0592 24.7808-31.8464 49.8688-47.7184 65.1264-31.8464 30.6176-75.264 65.8432-129.7408 65.8432-5.7344 0-11.4688-0.4096-17.2032-1.1264-39.6288-5.2224-100.2496-30.1056-166.2976-68.4032-71.5776-41.5744-140.6976-93.9008-194.56-147.3536-53.8624-53.5552-106.5984-122.1632-148.48-193.2288-38.7072-65.6384-64-126.1568-69.2224-165.888-3.4816-26.0096 2.6624-54.9888 17.8176-83.7632 13.5168-25.7024 33.6896-50.4832 58.368-71.68l4.3008-3.6864c18.944-16.384 35.328-30.5152 62.5664-41.0624 9.5232-4.1984 18.5344-6.2464 27.4432-6.2464 8.192 0 16.384 1.7408 24.4736 5.3248l0.4096 0.2048c3.584 1.7408 9.6256 4.9152 11.1616 5.8368 4.7104 2.3552 30.208 16.4864 58.5728 55.808 9.0112 12.5952 23.2448 33.792 33.6896 52.224 17.408 31.0272 28.7744 57.856 29.2864 58.9824l0.3072 0.8192 2.1504 6.8608c7.2704 19.456 2.9696 39.7312-11.5712 54.272-0.8192 0.8192-1.8432 1.9456-1.8432 1.9456l-1.2288 1.2288-0.9216 0.6144c-0.6144 0.512-1.8432 1.6384-2.6624 2.3552-2.2528 1.9456-2.8672 2.56-3.6864 3.1744l-0.7168 0.512c-9.3184 6.4512-12.6976 8.2944-16.2816 10.3424-2.4576 1.3312-4.9152 2.7648-10.3424 6.3488l-0.2048 0.2048c-9.216 5.8368-17.92 9.4208-27.2384 13.312-7.2704 3.072-15.5648 6.4512-25.6 11.5712-14.4384 7.3728-14.9504 28.2624-11.9808 35.1232 17.8176 41.472 49.3568 83.3536 102.2976 135.8848 46.6944 46.3872 92.672 76.0832 131.3792 99.0208 4.7104 2.7648 9.3184 4.096 14.2336 4.096 13.7216 0 26.8288-11.1616 32.768-22.1184 4.5056-8.4992 8.8064-17.3056 12.5952-25.1904 3.072-6.3488 5.9392-12.3904 8.704-17.6128l0.1024-0.1024c6.8608-12.8 11.8784-20.992 14.848-25.6 2.1504-3.2768 4.1984-6.5536 6.656-9.1136 5.9392-8.704 15.2576-16.0768 25.088-19.5584 5.5296-2.048 11.9808-3.072 18.6368-3.072 8.4992 0 16.6912 1.8432 22.9376 5.0176l16.896 8.8064c1.3312 0.7168 2.56 1.536 4.096 2.56 1.8432 1.2288 4.5056 2.9696 7.9872 5.2224 9.216 6.144 18.432 12.288 27.5456 18.5344 2.048 1.4336 4.096 2.8672 6.0416 4.3008l46.6944 36.2496z" fill="#434343" p-id="6165"></path></svg>