<?xml version="1.0" standalone="no"?><!DOCTYPE svg PUBLIC "-//W3C//DTD SVG 1.1//EN" "http://www.w3.org/Graphics/SVG/1.1/DTD/svg11.dtd"><svg t="1627151923417" class="icon" viewBox="0 0 1024 1024" version="1.1" xmlns="http://www.w3.org/2000/svg" p-id="4005" xmlns:xlink="http://www.w3.org/1999/xlink" width="200" height="200"><path d="M511.9488 586.7008m-345.2416 0a345.2416 345.2416 0 1 0 690.4832 0 345.2416 345.2416 0 1 0-690.4832 0Z" fill="#FFAC3E" p-id="4006"></path><path d="M511.9488 760.1664c-95.6416 0-173.4656-77.824-173.4656-173.4656 0-95.6416 77.824-173.4656 173.4656-173.4656 95.6416 0 173.4656 77.824 173.4656 173.4656 0 95.6416-77.824 173.4656-173.4656 173.4656z m0-265.0112c-50.4832 0-91.5456 41.0624-91.5456 91.5456s41.0624 91.5456 91.5456 91.5456 91.5456-41.0624 91.5456-91.5456-41.0624-91.5456-91.5456-91.5456z" fill="#F7F8F8" p-id="4007"></path><path d="M169.1648 96.3072h156.928c19.2 0 36.9152 10.4448 46.2848 27.2384L465.4592 291.328a21.76 21.76 0 0 1-6.0928 28.0064L307.9168 430.6944c-10.24 7.5264-24.6784 4.7104-31.3344-6.0928L124.1088 176.9472c-21.7088-35.2768 3.6864-80.64 45.056-80.64z" fill="#FFB357" p-id="4008"></path><path d="M243.0976 370.176l33.4848 54.4256a21.68832 21.68832 0 0 0 31.3344 6.0928l151.4496-111.36a21.632 21.632 0 0 0 6.0928-28.0064l-23.7056-42.752C361.984 265.0624 292.352 309.0432 243.0976 370.176z" fill="#FF7C0E" p-id="4009"></path><path d="M857.6512 96.3072h-156.928c-19.2 0-36.9152 10.4448-46.2848 27.2384L561.3568 291.328a21.76 21.76 0 0 0 6.0928 28.0064l151.4496 111.36c10.24 7.5264 24.6784 4.7104 31.3344-6.0928l152.4736-247.6544c21.6576-35.2768-3.6864-80.64-45.056-80.64z" fill="#FFB357" p-id="4010"></path><path d="M584.7552 249.1904l-23.3984 42.1376a21.76 21.76 0 0 0 6.0928 28.0064l151.4496 111.36c10.24 7.5264 24.6784 4.7104 31.3344-6.0928l32.2048-52.3264c-48.8448-61.5424-118.1696-105.984-197.6832-123.0848z" fill="#FF7C0E" p-id="4011"></path></svg>